<svg width="76" height="76" viewBox="0 0 76 76" fill="none" xmlns="http://www.w3.org/2000/svg">
<path d="M47.1362 1.21274C39.6911 1.21274 33.634 7.26973 33.634 14.7149V41.4766H38.4851V14.7149C38.4851 9.94473 42.366 6.06383 47.1362 6.06383C51.9064 6.06383 55.7873 9.94473 55.7873 14.7149V26.9235H60.6383V14.7149C60.6383 7.26988 54.5812 1.21274 47.1362 1.21274Z" fill="#A2B1B7"/>
<path d="M61.4467 23.6893H54.9787V65.0851H61.4467V23.6893Z" fill="#C4D3D9"/>
<path d="M20.714 1.21274C19.3745 1.21274 18.2885 2.29871 18.2885 3.63821V22.0722H23.1396V3.63836C23.1396 2.29871 22.0537 1.21274 20.714 1.21274Z" fill="#A2B1B7"/>
<path d="M24.7566 18.8383H16.6715V27.3851H24.7566V18.8383Z" fill="#C4D3D9"/>
<path d="M27.1822 24.902H20.7142L33.6503 69.9362H38.5014V41.4766C38.5013 33.9352 33.8075 27.4896 27.1822 24.902Z" fill="#ED6350"/>
<path d="M27.1825 26.0695L14.246 24.902C7.62064 27.4896 2.9269 33.9351 2.9269 41.4767V69.9364H33.6503V41.4766C33.6502 34.8932 31.0488 29.1453 27.1825 26.0695Z" fill="#F37C4A"/>
<path d="M6.1609 60.234C4.37475 60.234 2.9269 61.6819 2.9269 63.468V71.5531C2.9269 73.3393 4.37475 74.7871 6.1609 74.7871C7.94705 74.7871 9.39491 73.3393 9.39491 71.5531V63.468C9.39491 61.6819 7.94705 60.234 6.1609 60.234Z" fill="#414D53"/>
<path d="M35.2673 60.234C33.4811 60.234 32.0333 61.6819 32.0333 63.468V71.5531C32.0333 73.3393 33.4811 74.7871 35.2673 74.7871C37.0534 74.7871 38.5013 73.3393 38.5013 71.5531V63.468C38.5013 61.6819 37.0534 60.234 35.2673 60.234Z" fill="#414D53"/>
<path d="M27.1822 24.9022V30.1574C27.1822 31.9362 25.7269 33.3914 23.9482 33.3914H17.48C15.7013 33.3914 14.246 31.9362 14.246 30.1574V24.9022C16.2511 24.1194 18.4325 23.6894 20.714 23.6894C22.9955 23.6894 25.1771 24.1194 27.1822 24.9022Z" fill="#FBCFA3"/>
<path d="M62.2553 65.0851H57.4042V73.1702L67.1064 69.9362C67.1064 67.268 64.9234 65.0851 62.2553 65.0851Z" fill="#748993"/>
<path d="M62.2553 69.9362L55.7873 73.1702L49.3192 69.9362C49.3192 67.2682 51.5022 65.0851 54.1703 65.0851H57.4043C60.0724 65.0851 62.2553 67.268 62.2553 69.9362Z" fill="#A2B1B7"/>
<path d="M68.2222 69.9362L63.3711 72.3616L68.2222 74.7872H73.0733V69.9362H68.2222Z" fill="#414D53"/>
<path d="M68.2222 69.9362H43.3524V74.7872H68.2222V69.9362Z" fill="#57676E"/>
<path d="M14.246 61.4468H27.1822C27.8519 61.4468 28.3949 60.9038 28.3949 60.234C28.3949 59.5643 27.8519 59.0213 27.1822 59.0213H14.246C13.5762 59.0213 13.0332 59.5643 13.0332 60.234C13.0332 60.9038 13.5762 61.4468 14.246 61.4468Z" fill="black"/>
<path d="M14.246 56.5958H27.1822C27.8519 56.5958 28.3949 56.0528 28.3949 55.3831C28.3949 54.7133 27.8519 54.1703 27.1822 54.1703H14.246C13.5762 54.1703 13.0332 54.7133 13.0332 55.3831C13.0332 56.0527 13.5762 56.5958 14.246 56.5958Z" fill="black"/>
<path d="M14.246 51.7447H27.1822C27.8519 51.7447 28.3949 51.2018 28.3949 50.532C28.3949 49.8623 27.8519 49.3193 27.1822 49.3193H14.246C13.5762 49.3193 13.0332 49.8623 13.0332 50.532C13.0332 51.2018 13.5762 51.7447 14.246 51.7447Z" fill="black"/>
<path d="M27.7013 23.8077C27.6446 23.7807 27.5856 23.7576 27.5243 23.7395C27.0161 23.5437 26.4977 23.3685 25.9694 23.2164V18.8384C25.9694 18.1686 25.4265 17.6256 24.7567 17.6256H24.3525V3.63835C24.3524 1.63207 22.7203 0 20.714 0C18.7077 0 17.0757 1.63207 17.0757 3.63835V17.6256H16.6715C16.0017 17.6256 15.4587 18.1686 15.4587 18.8384V23.2164C14.9306 23.3685 14.4122 23.5437 13.9038 23.7395C13.8425 23.7574 13.7838 23.7807 13.7269 23.8077C6.6975 26.5973 1.714 33.4658 1.714 41.4766V71.5531C1.714 74.0051 3.70871 75.9998 6.16075 75.9998C8.61279 75.9998 10.6075 74.0051 10.6075 71.5531V63.468C10.6075 61.016 8.61279 59.0213 6.16075 59.0213C5.43311 59.0213 4.74629 59.1981 4.13947 59.5093V41.4766C4.13947 35.1075 7.75096 29.5673 13.0331 26.7928V30.1573C13.0331 32.6093 15.0278 34.604 17.4798 34.604H23.9479C26.3999 34.604 28.3946 32.6093 28.3946 30.1573V26.793C33.6768 29.5671 37.2882 35.1077 37.2882 41.4767V59.5093C36.6814 59.1982 35.9946 59.0213 35.267 59.0213C32.8149 59.0213 30.8202 61.016 30.8202 63.468V68.7233H14.246C13.5762 68.7233 13.0333 69.2663 13.0333 69.936C13.0333 70.6058 13.5762 71.1488 14.246 71.1488H30.8205V71.553C30.8205 74.005 32.8152 75.9997 35.2673 75.9997C37.7193 75.9997 39.714 74.005 39.714 71.553V41.4766C39.714 33.4658 34.7305 26.5972 27.7013 23.8077ZM6.1609 61.4467C7.27551 61.4467 8.18217 62.3534 8.18217 63.468V71.5531C8.18217 72.6677 7.27551 73.5744 6.1609 73.5744C5.04628 73.5744 4.13962 72.6677 4.13962 71.5531V63.468C4.13962 62.3534 5.04643 61.4467 6.1609 61.4467ZM19.5013 3.63835C19.5013 2.96949 20.0453 2.42562 20.714 2.42562C21.3827 2.42562 21.9267 2.96964 21.9267 3.63835V17.6256H19.5013C19.5013 17.6255 19.5013 3.63835 19.5013 3.63835ZM17.8842 20.0511H23.5438V22.6875C22.6204 22.5488 21.6756 22.4766 20.714 22.4766C19.7524 22.4766 18.8078 22.549 17.8842 22.6875V20.0511ZM25.9693 30.1575C25.9693 31.2721 25.0626 32.1787 23.948 32.1787H17.48C16.3654 32.1787 15.4587 31.2721 15.4587 30.1575V25.7566C17.1108 25.2028 18.878 24.9022 20.714 24.9022C22.55 24.9022 24.3172 25.2028 25.9693 25.7566V30.1575ZM37.2885 71.5533C37.2885 72.6679 36.3819 73.5745 35.2673 73.5745C34.1526 73.5745 33.246 72.6679 33.246 71.5533V63.4682C33.246 62.3535 34.1526 61.4469 35.2673 61.4469C36.3819 61.4469 37.2885 62.3535 37.2885 63.4682V71.5533Z" fill="black"/>
<path d="M73.0733 68.7234H68.1971C67.6599 66.0873 65.4068 64.0692 62.6596 63.8873V23.6893C62.6596 23.1614 62.3218 22.7138 61.8511 22.5471V14.7149C61.8511 6.60102 55.2501 0 47.1362 0C39.0223 0 32.4213 6.60102 32.4213 14.7149V22.8981C32.4213 23.5679 32.9643 24.1109 33.634 24.1109C34.3038 24.1109 34.8467 23.5679 34.8467 22.8981V14.7149C34.8467 7.93844 40.3597 2.42562 47.136 2.42562C53.9124 2.42562 59.4255 7.93859 59.4255 14.7149V22.4766H57V14.7149C57 9.27586 52.5752 4.85109 47.1362 4.85109C41.6971 4.85109 37.2724 9.27586 37.2724 14.7149V27.4675C37.2724 28.1372 37.8154 28.6802 38.4851 28.6802C39.1549 28.6802 39.6978 28.1372 39.6978 27.4675V14.7149C39.6978 10.6134 43.0347 7.27655 47.1362 7.27655C51.2377 7.27655 54.5745 10.6134 54.5745 14.7149V22.5471C54.1038 22.7138 53.766 23.1616 53.766 23.6893V63.8873C51.0189 64.0693 48.7657 66.0873 48.2285 68.7234H43.3524C42.6826 68.7234 42.1396 69.2664 42.1396 69.9362V74.7873C42.1396 75.457 42.6826 76 43.3524 76H73.0733C73.743 76 74.286 75.457 74.286 74.7873V69.9362C74.286 69.2664 73.743 68.7234 73.0733 68.7234ZM56.1915 63.8724V24.9022H60.234V63.8724H56.1915ZM54.1702 66.2978H62.2553C63.8365 66.2978 65.1844 67.3118 65.6849 68.7233H50.7405C51.2411 67.312 52.589 66.2978 54.1702 66.2978ZM71.8604 73.5745H44.5651V71.1491H71.8604V73.5745Z" fill="black"/>
</svg>
