<svg width="76" height="76" viewBox="0 0 76 76" fill="none" xmlns="http://www.w3.org/2000/svg">
<path d="M48.1334 72.2H12.6667L7.60004 32.9333H53.2L48.1334 72.2Z" fill="#4398D1"/>
<path d="M57 27.8666H3.80002V32.9332H57V27.8666Z" fill="#4398D1"/>
<path d="M7.59998 32.9334L8.25355 38H52.5464L53.2 32.9334H7.59998Z" fill="#398CC4"/>
<path d="M27.8667 27.8666H10.1334V16.4666L15.2 10.1334H22.8L27.8667 16.4666V27.8666Z" fill="#726891"/>
<path d="M22.8 1.26663H15.2V10.1332H22.8V1.26663Z" fill="#E8594A"/>
<path d="M27.8668 16.4666H10.1334V27.8666H27.8668V16.4666Z" fill="#7A709C"/>
<path d="M50.7993 17.0323L53.0658 15.9009L47.8955 5.54305L45.6291 6.67439L50.7993 17.0323Z" fill="#E66712"/>
<path d="M55.7332 1.26663H50.6666V6.33325H55.7332V1.26663Z" fill="#F77219"/>
<path d="M44.3334 11.4H32.9334C32.9334 5.80392 37.4705 1.26663 43.0668 1.26663H50.6668V6.33325L44.3334 11.4Z" fill="#F77219"/>
<path d="M44.3334 11.4H36.7334V16.4666H44.3334V11.4Z" fill="#D4D4D4"/>
<path d="M36.7334 16.4666H44.3334L50.6666 22.8V27.8666H32.9334V20.2666L36.7334 16.4666Z" fill="#EBEBEB"/>
<path d="M65.8666 54.4667H63.8831C62.6886 54.4667 61.5106 54.7453 60.4415 55.2786C58.2755 56.363 55.7245 56.363 53.5585 55.2786C52.4894 54.7454 51.3114 54.4667 50.117 54.4667H48.1334C44.6361 54.4667 41.8 57.3027 41.8 60.8001V68.4001C41.8 71.8974 44.6361 74.7334 48.1334 74.7334H50.117C51.3114 74.7334 52.4894 74.4548 53.5585 73.9215C55.7245 72.8372 58.2755 72.8372 60.4415 73.9215C61.5106 74.4548 62.6886 74.7334 63.8831 74.7334H65.8666C69.364 74.7334 72.2 71.8974 72.2 68.4001V60.8001C72.2 57.3027 69.364 54.4667 65.8666 54.4667Z" fill="#F5A338"/>
<path d="M65.8666 67.1334H63.8831C62.6886 67.1334 61.5106 66.8548 60.4415 66.3215C58.2755 65.2371 55.7245 65.2371 53.5585 66.3215C52.4894 66.8547 51.3114 67.1334 50.117 67.1334H48.1334C44.6361 67.1334 41.8 64.2974 41.8 60.8001C41.8 57.3027 44.6361 54.4667 48.1334 54.4667H50.117C51.3114 54.4667 52.4894 54.7453 53.5585 55.2786C55.7245 56.363 58.2755 56.363 60.4415 55.2786C61.5106 54.7454 62.6886 54.4667 63.8831 54.4667H65.8666C69.364 54.4667 72.2 57.3027 72.2 60.8001C72.2 64.2974 69.364 67.1334 65.8666 67.1334Z" fill="#F9B44D"/>
<path d="M67.1334 58.2667H64.6V60.8H67.1334V58.2667Z" fill="#F5A338"/>
<path d="M54.4667 58.2667H51.9333V60.8H54.4667V58.2667Z" fill="#F5A338"/>
<path d="M49.4 59.5334H46.8666V62.0668H49.4V59.5334Z" fill="#F5A338"/>
<path d="M62.0667 59.5334H59.5333V62.0668H62.0667V59.5334Z" fill="#F5A338"/>
<path d="M36.7334 38V27.8666H16.4666V57C16.4666 59.0989 18.1677 60.8 20.2666 60.8H32.9332C35.0321 60.8 36.7332 59.0989 36.7332 57V44.3334L41.8758 46.9048C43.2324 47.5837 44.8817 47.0339 45.5605 45.6787C45.5605 45.6773 45.5618 45.6773 45.5618 45.6761L45.5935 45.6128C46.3028 44.2207 45.748 42.5171 44.3571 41.8089C44.3521 41.8064 44.3457 41.8025 44.3395 41.8L36.7334 38Z" fill="#97D3E6"/>
<path d="M44.3396 41.8L36.7334 38V27.8666H35.7733C31.1753 42.9842 23.1067 52.2233 16.5199 57.5586C16.7923 59.4192 18.3869 60.7987 20.2668 60.8H32.9334C35.0323 60.8 36.7334 59.0989 36.7334 57V44.3334L41.876 46.9048C43.2326 47.5837 44.8819 47.0339 45.5607 45.6787C45.5607 45.6773 45.562 45.6773 45.562 45.6761L45.5936 45.6128C46.303 44.2207 45.7481 42.5171 44.3573 41.8089C44.351 41.8064 44.346 41.8025 44.3396 41.8Z" fill="#8AC9DE"/>
<path d="M22.8 48.1334H20.2666V60.8H22.8V48.1334Z" fill="#7DBDD1"/>
<path d="M27.8668 48.1334H25.3334V60.8H27.8668V48.1334Z" fill="#7DBDD1"/>
<path d="M32.9333 48.1334H30.4V60.8H32.9333V48.1334Z" fill="#7DBDD1"/>
<path d="M3.79997 34.2H6.48654L11.4101 72.3621C11.4911 72.9941 12.0295 73.4666 12.6666 73.4666H42.484C43.9204 75.0766 45.9749 75.9987 48.1334 76H50.1169C51.5078 75.9987 52.8795 75.6745 54.1246 75.0539C55.936 74.1533 58.064 74.1533 59.8752 75.0539C61.1203 75.6745 62.4922 75.9988 63.8829 76H65.8664C70.0616 75.9961 73.4626 72.5951 73.4664 68.4V60.8C73.4626 56.6049 70.0616 53.2039 65.8664 53.2H63.883C62.4922 53.2013 61.1205 53.5255 59.8754 54.1461C58.064 55.0467 55.936 55.0467 54.1247 54.1461C53.4027 53.7915 52.6352 53.5356 51.8447 53.3861L54.3134 34.2H57C57.6991 34.2 58.2666 33.6325 58.2666 32.9334V27.8668C58.2666 27.1676 57.6991 26.6001 57 26.6001H51.9334V22.8001C51.9334 22.4645 51.8004 22.1415 51.5623 21.9046L45.6 15.9423V12.008L47.5203 10.4729L50.7997 17.0329L53.0671 15.9005L49.5432 8.854L51.11 7.6H55.7334C56.4325 7.6 57 7.03252 57 6.33338V1.26662C57 0.567477 56.4325 0 55.7334 0H43.0667C36.7739 0.00757031 31.6743 5.10714 31.6667 11.4C31.6667 12.0991 32.2342 12.6666 32.9334 12.6666H35.4667V15.9422L32.0378 19.3711C31.7997 19.608 31.6667 19.931 31.6667 20.2666V26.6H29.1334V16.4666C29.1308 16.3096 29.1004 16.155 29.0409 16.0093C29.018 15.9599 28.9914 15.9118 28.9624 15.8662C28.9319 15.8003 28.8964 15.7357 28.8559 15.6749L24.0666 9.68985V1.26662C24.0666 0.567477 23.4991 0 22.8 0H15.2C14.5008 0 13.9334 0.567477 13.9334 1.26662V9.69L9.14402 15.675C9.1035 15.7359 9.06802 15.8004 9.03759 15.8663C9.0085 15.9119 8.98193 15.96 8.95907 16.0094C8.89954 16.155 8.86911 16.3096 8.86659 16.4668V26.6H3.79997C3.10083 26.6 2.53336 27.1675 2.53336 27.8666V32.9332C2.53336 33.6325 3.10083 34.2 3.79997 34.2ZM65.8666 73.4666H63.883C62.8849 73.4653 61.902 73.2322 61.009 72.7877C58.4833 71.5323 55.5166 71.5323 52.991 72.7877C52.098 73.2322 51.115 73.4653 50.1169 73.4666H48.1334C45.3353 73.4666 43.0667 71.198 43.0667 68.4V66.4494C44.4563 67.7047 46.2613 68.4 48.1334 68.4H50.1169C51.5078 68.3987 52.8795 68.0745 54.1246 67.4539C55.936 66.5533 58.064 66.5533 59.8752 67.4539C61.1203 68.0745 62.4922 68.3988 63.8829 68.4H65.8664C67.7385 68.4 69.5435 67.7046 70.9331 66.4494V68.4C70.9334 71.198 68.6646 73.4666 65.8666 73.4666ZM61.009 56.4123C61.902 55.9678 62.8849 55.7347 63.883 55.7334H65.8666C68.6646 55.7334 70.9332 58.002 70.9332 60.8C70.9332 63.598 68.6646 65.8666 65.8666 65.8666H63.883C62.8849 65.8653 61.902 65.6322 61.009 65.1877C58.4833 63.9323 55.5166 63.9323 52.991 65.1877C52.098 65.6322 51.115 65.8653 50.1169 65.8666H48.1334C45.3353 65.8666 43.0667 63.598 43.0667 60.8C43.0667 58.002 45.3353 55.7334 48.1334 55.7334H50.1169C51.115 55.7347 52.098 55.9678 52.991 56.4123C55.5166 57.6663 58.4833 57.6663 61.009 56.4123ZM49.3075 53.2H48.1334C43.9382 53.2039 40.5372 56.6049 40.5334 60.8V68.4C40.5359 69.2639 40.6854 70.1201 40.9767 70.9334H13.78L9.04011 34.2H15.2V57C15.2 59.798 17.4685 62.0666 20.2666 62.0666H32.9332C35.7314 62.0666 38 59.798 38 57V46.3829L41.3085 48.0372C43.3074 49.0239 45.7279 48.2031 46.7146 46.2043C46.7185 46.1954 46.7222 46.1878 46.7272 46.1789C47.2174 45.206 47.3011 44.0788 46.9591 43.0439C46.6209 42.009 45.8825 41.154 44.9071 40.6702L38 37.2171V34.2H51.7598L49.3075 53.2ZM32.9334 29.1334H35.4667V38C35.4642 38.4826 35.7353 38.9246 36.1672 39.14L43.7672 42.94C44.1383 43.1224 44.4183 43.448 44.5462 43.8406C44.6779 44.2624 44.6323 44.7196 44.4196 45.1072C44.0547 45.8381 43.1669 46.1357 42.436 45.7709C42.4347 45.7709 42.4335 45.7695 42.4322 45.7695L37.2896 43.1981C36.6612 42.8916 35.9025 43.1512 35.596 43.7796C35.5111 43.9519 35.4669 44.1419 35.4669 44.3331V57C35.4669 58.3996 34.3333 59.5334 32.9335 59.5334V48.1334H30.4V59.5334H27.8666V48.1334H25.3332V59.5334H22.8V48.1334H20.2666V59.5334C18.867 59.5334 17.7332 58.3998 17.7332 57V29.1334H32.9334ZM55.7334 31.6666H38V29.1332H55.7334V31.6666ZM54.4666 5.06662H51.9332V2.53338H54.4666V5.06662ZM43.0666 2.53338H49.4V5.72538L43.8886 10.1334H34.2898C34.9258 5.77348 38.6611 2.53843 43.0666 2.53338ZM43.0666 12.6666V15.2H38V12.6666H43.0666ZM34.2 20.791L37.2576 17.7334H43.8088L49.3998 23.3244V26.6H34.2V20.791ZM15.808 11.4H22.192L25.232 15.2H12.768L15.808 11.4ZM16.4666 2.53338H21.5332V8.86677H16.4666V2.53338ZM11.4 17.7334H26.6V26.6H11.4V17.7334ZM5.06659 29.1334H15.2V31.6668H5.06659V29.1334Z" fill="black"/>
<path d="M67.1334 58.2667H64.6V60.8H67.1334V58.2667Z" fill="black"/>
<path d="M54.4668 58.2667H51.9334V60.8H54.4668V58.2667Z" fill="black"/>
<path d="M49.4 59.5333H46.8666V62.0667H49.4V59.5333Z" fill="black"/>
<path d="M62.0668 59.5333H59.5334V62.0667H62.0668V59.5333Z" fill="black"/>
</svg>
