<svg width="76" height="76" viewBox="0 0 76 76" fill="none" xmlns="http://www.w3.org/2000/svg">
<g clip-path="url(#clip0)">
<path d="M14.8788 45.2721C13.3221 45.2721 11.8909 45.8062 10.7552 46.6989V53.7345H11.5326C12.6571 53.7345 13.5722 54.6496 13.5722 55.774C13.5722 56.4206 13.2734 57.0154 12.7523 57.4058C12.6733 57.465 12.6267 57.5581 12.6267 57.657C12.6267 57.7558 12.6733 57.8489 12.7523 57.9081C13.2734 58.2984 13.5722 58.893 13.5722 59.5396C13.5722 60.1862 13.2734 60.7807 12.7523 61.1711C12.6733 61.2302 12.6267 61.3235 12.6267 61.4222C12.6267 61.521 12.6733 61.614 12.7523 61.6733C13.2734 62.0638 13.5722 62.6584 13.5722 63.305C13.5722 63.9516 13.2734 64.5463 12.7523 64.9368C12.6733 64.996 12.6267 65.0891 12.6267 65.1878C12.6267 65.2867 12.6733 65.3799 12.7523 65.439C13.2734 65.8292 13.5722 66.4237 13.5722 67.0703C13.5722 68.195 12.6571 69.11 11.5326 69.11H10.7552V74.8867H59.5879V45.2721H14.8788Z" fill="#26A6FE"/>
<path d="M22.6522 45.2721H14.8786C13.322 45.2721 11.8907 45.8062 10.755 46.6989V53.7345H11.5324C12.657 53.7345 13.5721 54.6496 13.5721 55.774C13.5721 56.4206 13.2733 57.0154 12.7521 57.4058C12.6731 57.465 12.6265 57.5581 12.6265 57.657C12.6265 57.7558 12.6731 57.8489 12.7521 57.9081C13.2733 58.2984 13.5721 58.893 13.5721 59.5396C13.5721 60.1862 13.2733 60.7807 12.7521 61.1711C12.6731 61.2302 12.6265 61.3235 12.6265 61.4222C12.6265 61.521 12.6731 61.614 12.7521 61.6733C13.2733 62.0638 13.5721 62.6584 13.5721 63.305C13.5721 63.9516 13.2733 64.5463 12.7521 64.9368C12.6731 64.996 12.6265 65.0891 12.6265 65.1878C12.6265 65.2867 12.6731 65.3799 12.7521 65.439C13.2733 65.8292 13.5721 66.4237 13.5721 67.0703C13.5721 68.195 12.657 69.11 11.5324 69.11H10.755V74.8867H17.4567C16.6369 74.8867 15.9723 74.2222 15.9723 73.4023V51.9518C15.9725 48.2627 18.963 45.2721 22.6522 45.2721Z" fill="#0593FC"/>
<path d="M30.791 69.1098H18.0254C17.7794 69.1098 17.58 68.9105 17.58 68.6645V60.6489C17.58 60.4029 17.7794 60.2036 18.0254 60.2036H30.791C31.037 60.2036 31.2363 60.4029 31.2363 60.6489V68.6645C31.2363 68.9105 31.0368 69.1098 30.791 69.1098Z" fill="white"/>
<path d="M22.1172 68.6645V60.6489C22.1172 60.4029 22.3165 60.2036 22.5625 60.2036H18.0254C17.7794 60.2036 17.58 60.4029 17.58 60.6489V68.6645C17.58 68.9105 17.7794 69.1098 18.0254 69.1098H22.5625C22.3165 69.1098 22.1172 68.9105 22.1172 68.6645Z" fill="#F3F0F3"/>
<path d="M22.4785 21.9443H24.2767V17.9673C24.2767 15.7041 26.1179 13.8629 28.3811 13.8629H48.0445C50.3077 13.8629 52.1489 15.7041 52.1489 17.9673V21.9443H53.9471C54.967 21.9443 55.9062 22.2879 56.657 22.8647V16.9188C56.657 8.18959 49.5807 1.11328 40.8515 1.11328H35.5741C26.8449 1.11328 19.7686 8.18959 19.7686 16.9188V22.8647C20.5194 22.288 21.4586 21.9443 22.4785 21.9443Z" fill="#B5ADB6"/>
<path d="M22.4785 21.9443H24.1282V17.9673C24.1282 16.42 24.9547 15.066 26.1902 14.3218C27.4045 6.9773 33.6815 1.34143 41.3169 1.12055C41.1622 1.1161 41.0072 1.11328 40.8515 1.11328H35.5741C26.8449 1.11328 19.7686 8.18959 19.7686 16.9188V22.8647C20.5194 22.288 21.4586 21.9443 22.4785 21.9443Z" fill="#A79BA7"/>
<path d="M41.3345 41.8837H35.0911C34.2289 41.8837 33.3912 41.7819 32.5865 41.5937V45.2721L38.2129 61.4531L43.8392 45.2721V41.5937C43.0346 41.7819 42.1966 41.8837 41.3345 41.8837Z" fill="#EA9B58"/>
<path d="M38.2127 50.4688C38.4959 50.4688 38.7769 50.4599 39.0566 50.4456L37.6694 46.4561C37.3969 45.6723 37.2578 44.8483 37.2578 44.0186V41.8837H35.0911C34.2289 41.8837 33.3912 41.7819 32.5865 41.5937V45.2721L34.224 49.9816C35.5014 50.2991 36.8371 50.4688 38.2127 50.4688Z" fill="#D88A55"/>
<path d="M24.1281 30.9207V21.9442H22.4783C20.0189 21.9442 18.0252 23.9379 18.0252 26.3974V28.0547C18.0252 30.5141 20.0189 32.5078 22.4783 32.5078H24.2438C24.1687 31.9895 24.1281 31.4598 24.1281 30.9207Z" fill="#EA9B58"/>
<path d="M53.9472 21.9442H52.2975V30.9207C52.2975 31.4598 52.2568 31.9895 52.1815 32.5078H53.9471C56.4065 32.5078 58.4002 30.5141 58.4002 28.0547V26.3974C58.4003 23.9381 56.4065 21.9442 53.9472 21.9442Z" fill="#EA9B58"/>
<path d="M41.3345 41.8837H35.0911C29.0364 41.8837 24.1281 36.9755 24.1281 30.9207V17.9673C24.1281 15.6185 26.0322 13.7144 28.3809 13.7144H48.0444C50.3933 13.7144 52.2973 15.6186 52.2973 17.9673V30.9207C52.2975 36.9755 47.3891 41.8837 41.3345 41.8837Z" fill="#F6A96C"/>
<path d="M28.7969 30.9207V17.9673C28.7969 15.6185 30.701 13.7144 33.0497 13.7144H28.3809C26.0321 13.7144 24.1281 15.6186 24.1281 17.9673V30.9207C24.1281 36.9753 29.0363 41.8837 35.0911 41.8837H39.7599C33.7051 41.8837 28.7969 36.9755 28.7969 30.9207Z" fill="#EA9B58"/>
<path d="M38.2127 50.4688C36.8372 50.4688 35.5012 50.2991 34.2239 49.9814L38.2127 61.4531L42.2015 49.9814C40.9242 50.2991 39.5884 50.4688 38.2127 50.4688Z" fill="#554E56"/>
<path d="M6.54936 53.7344L10.7552 53.7345V35.9961C10.7552 35.5863 10.4228 35.2539 10.013 35.2539H6.612C6.20216 35.2539 5.86981 35.5863 5.86981 35.9961V53.8012C6.0898 53.7577 6.31676 53.7344 6.54936 53.7344Z" fill="#05E39C"/>
<path d="M6.54936 69.1098C6.31691 69.1098 6.0898 69.0865 5.86996 69.043V74.1445C5.86996 74.5544 6.20232 74.8867 6.61215 74.8867H10.7553V69.1098H6.54936Z" fill="#05E39C"/>
<path d="M8.3125 35.9961C8.3125 35.5863 8.64485 35.2539 9.05469 35.2539H6.612C6.20216 35.2539 5.86981 35.5863 5.86981 35.9961V49.4297H8.3125V35.9961Z" fill="#0ED290"/>
<path d="M8.3125 74.1445V69.1098H6.54936C6.31691 69.1098 6.0898 69.0865 5.86996 69.043V74.1445C5.86996 74.5544 6.20232 74.8867 6.61215 74.8867H9.05469C8.64486 74.8867 8.3125 74.5544 8.3125 74.1445Z" fill="#0ED290"/>
<path d="M6.54936 53.7344L10.7552 53.7345V49.4297H5.86981V53.8012C6.0898 53.7577 6.31676 53.7344 6.54936 53.7344Z" fill="#B5ADB6"/>
<path d="M6.54936 53.7344H8.3125V49.4297H5.86981V53.8012C6.0898 53.7577 6.31676 53.7344 6.54936 53.7344Z" fill="#A79BA7"/>
<path d="M6.54936 53.7344C4.62131 53.7344 3.05292 55.3029 3.05292 57.231V65.6134C3.05292 67.5414 4.62131 69.1098 6.54936 69.1098H11.5326C12.6571 69.1098 13.5722 68.1949 13.5722 67.0701C13.5722 66.4236 13.2734 65.8291 12.7523 65.4388C12.6733 65.3796 12.6267 65.2865 12.6267 65.1877C12.6267 65.089 12.6733 64.9959 12.7523 64.9367C13.2734 64.5461 13.5722 63.9515 13.5722 63.3049C13.5722 62.6584 13.2734 62.0636 12.7523 61.6731C12.6733 61.6139 12.6267 61.5208 12.6267 61.4221C12.6267 61.3234 12.6733 61.23 12.7523 61.1709C13.2734 60.7806 13.5722 60.1861 13.5722 59.5395C13.5722 58.8929 13.2734 58.2982 12.7523 57.908C12.6733 57.8488 12.6267 57.7558 12.6267 57.6568C12.6267 57.558 12.6733 57.4651 12.7523 57.4057C13.2734 57.0153 13.5722 56.4206 13.5722 55.7739C13.5722 54.6495 12.6571 53.7344 11.5326 53.7344H6.54936Z" fill="#F6A96C"/>
<path d="M7.10942 66.0989V56.7453C7.10942 55.5343 7.66398 54.4506 8.53234 53.7344H6.54936C4.62131 53.7344 3.05292 55.3029 3.05292 57.231V65.6134C3.05292 67.5414 4.62131 69.1098 6.54936 69.1098H8.53249C7.66398 68.3938 7.10942 67.3099 7.10942 66.0989Z" fill="#EA9B58"/>
<path d="M46.2368 31.5758C44.5281 29.5536 41.5736 28.2159 38.2129 28.2159C34.8521 28.2159 31.8976 29.5536 30.1889 31.5758H24.1493C24.4883 37.3253 29.2564 41.8837 35.0911 41.8837H41.3345C47.1691 41.8837 51.9372 37.3252 52.2763 31.5758H46.2368Z" fill="#8AC9FE"/>
<path d="M28.8181 31.5757H24.1493C24.4883 37.3253 29.2564 41.8837 35.0911 41.8837H39.7599C33.9252 41.8837 29.1571 37.3252 28.8181 31.5757Z" fill="#60B7FF"/>
<path d="M61.1465 39.0391H64.8574V44.0859H61.1465V39.0391Z" fill="#D8ECFE"/>
<path d="M66.416 44.8281C66.416 44.4183 66.0836 44.0859 65.6738 44.0859H60.33C59.9202 44.0859 59.5879 44.4183 59.5879 44.8281V48.0938H66.416V44.8281Z" fill="#8AC9FE"/>
<path d="M62.6406 44.8281C62.6406 44.4183 62.973 44.0859 63.3828 44.0859H60.33C59.9202 44.0859 59.5879 44.4183 59.5879 44.8281V48.0938H62.6406V44.8281Z" fill="#60B7FF"/>
<path d="M72.205 74.8867H59.5879V48.0938H68.4941C70.9536 48.0938 72.9472 50.0874 72.9472 52.5469V74.1445C72.9472 74.5544 72.6149 74.8867 72.205 74.8867Z" fill="#05E39C"/>
<path d="M59.5879 48.0938H64.125V69.0234H59.5879V48.0938Z" fill="#0ED290"/>
<path d="M59.5879 74.8867H72.205C72.6149 74.8867 72.9472 74.5544 72.9472 74.1445V69.0234H59.5879V74.8867Z" fill="#D8ECFE"/>
<path d="M59.5879 69.0234H64.125V74.8867H59.5879V69.0234Z" fill="#C4E2FF"/>
<path d="M70.2754 39.0391H60.6269C59.7252 39.0391 58.9941 38.308 58.9941 37.4062V36.5156C58.9941 35.6139 59.7252 34.8828 60.6269 34.8828H70.2754C70.5213 34.8828 70.7207 35.0822 70.7207 35.3281V38.5938C70.7207 38.8397 70.5212 39.0391 70.2754 39.0391Z" fill="#05E39C"/>
<path d="M64.2734 37.4062V36.5156C64.2734 35.6139 65.0045 34.8828 65.9062 34.8828H60.6269C59.7252 34.8828 58.9941 35.6139 58.9941 36.5156V37.4062C58.9941 38.308 59.7252 39.0391 60.6269 39.0391H65.9062C65.0045 39.0391 64.2734 38.308 64.2734 37.4062Z" fill="#0ED290"/>
<path d="M16.4668 60.649V68.6647C16.4668 69.5241 17.1659 70.2233 18.0254 70.2233H30.791C31.6504 70.2233 32.3496 69.5241 32.3496 68.6647V60.649C32.3496 59.7896 31.6504 59.0905 30.791 59.0905H18.0254C17.1659 59.0905 16.4668 59.7896 16.4668 60.649ZM18.6933 61.317H30.123V67.9967H18.6933V61.317Z" fill="black"/>
<path d="M26.6347 55.6764H22.1816C21.5666 55.6764 21.0683 56.1748 21.0683 56.7897C21.0683 57.4045 21.5666 57.903 22.1816 57.903H26.6347C27.2497 57.903 27.748 57.4045 27.748 56.7897C27.748 56.1748 27.2496 55.6764 26.6347 55.6764Z" fill="black"/>
<path d="M31.5332 20.8555C30.9182 20.8555 30.4199 21.3539 30.4199 21.9688V25.0859C30.4199 25.7008 30.9182 26.1992 31.5332 26.1992C32.1481 26.1992 32.6465 25.7008 32.6465 25.0859V21.9688C32.6465 21.3539 32.148 20.8555 31.5332 20.8555Z" fill="black"/>
<path d="M44.8925 26.1992C45.5075 26.1992 46.0058 25.7008 46.0058 25.0859V21.9688C46.0058 21.3539 45.5075 20.8555 44.8925 20.8555C44.2776 20.8555 43.7793 21.3539 43.7793 21.9688V25.0859C43.7793 25.7008 44.2776 26.1992 44.8925 26.1992Z" fill="black"/>
<path d="M72.9472 60.1914C73.5622 60.1914 74.0605 59.693 74.0605 59.0781V52.5469C74.0605 49.4775 71.5635 46.9805 68.4941 46.9805H67.5293V44.8281C67.5293 43.9063 66.8528 43.1414 65.9707 42.9986V40.1523H66.1032L69.9334 43.9825C70.1508 44.1998 70.4358 44.3086 70.7207 44.3086C71.0055 44.3086 71.2905 44.1999 71.508 43.9825C71.9428 43.5477 71.9428 42.8428 71.508 42.4081L69.2522 40.1523H70.2754C71.1348 40.1523 71.834 39.4532 71.834 38.5938V35.3281C71.834 34.4687 71.1348 33.7695 70.2754 33.7695H60.6269C59.1127 33.7695 57.8808 35.0014 57.8808 36.5156V37.4062C57.8808 38.7165 58.8038 39.8136 60.0332 40.0858V42.9986C59.3769 43.1049 58.8351 43.5556 58.6005 44.1587H44.9525V42.4427C49.0055 41.1663 52.1411 37.8044 53.1006 33.6211H53.9474C57.0168 33.6211 59.5138 31.1241 59.5138 28.0547V26.3974C59.5138 24.8076 58.8429 23.3725 57.7705 22.3572V16.9188C57.7703 7.58976 50.1806 0 40.8515 0H35.5741C26.2449 0 18.6553 7.58976 18.6553 16.9188V22.3572C17.583 23.3725 16.9121 24.8076 16.9121 26.3974V28.0547C16.9121 31.1241 19.4091 33.6211 22.4785 33.6211H23.3253C24.2848 37.8044 27.4204 41.1663 31.4734 42.4427V44.1588H27.9063C27.2913 44.1588 26.793 44.6573 26.793 45.2721C26.793 45.8869 27.2913 46.3854 27.9063 46.3854H31.795L37.0996 61.6412V73.7734H11.8685V70.2047C13.4496 70.0364 14.6855 68.6952 14.6855 67.0703C14.6855 66.3777 14.4645 65.7241 14.0618 65.1877C14.4646 64.6509 14.6855 63.9973 14.6855 63.3049C14.6855 62.6123 14.4643 61.9584 14.0619 61.422C14.4646 60.8854 14.6855 60.2318 14.6855 59.5395C14.6855 58.8467 14.4645 58.193 14.0619 57.6567C14.4646 57.1199 14.6855 56.4664 14.6855 55.7741C14.6855 54.1491 13.4496 52.808 11.8685 52.6396V47.2724C12.737 46.7118 13.7703 46.3852 14.8786 46.3852H22.7109C23.3259 46.3852 23.8242 45.8868 23.8242 45.2719C23.8242 44.6571 23.3259 44.1587 22.7109 44.1587H14.8786C13.8117 44.1587 12.795 44.3757 11.8685 44.7659V35.9961C11.8685 34.9729 11.0362 34.1406 10.013 34.1406H6.612C5.58882 34.1406 4.75653 34.9729 4.75653 35.9961V52.984C3.10264 53.6848 1.93948 55.3246 1.93948 57.231V65.6135C1.93948 67.5199 3.10264 69.1597 4.75653 69.8605V74.1445C4.75653 75.1677 5.58882 76 6.612 76H72.2051C73.2282 76 74.0605 75.1677 74.0605 74.1445V64.2734C74.0605 63.6586 73.5622 63.1602 72.9472 63.1602C72.3323 63.1602 71.834 63.6586 71.834 64.2734V67.9102H60.7011V49.207H68.4941C70.3356 49.207 71.834 50.7052 71.834 52.5469V59.0781C71.834 59.693 72.3323 60.1914 72.9472 60.1914ZM6.98309 36.3672H9.64191V48.3164H6.98309V36.3672ZM6.98309 50.543H9.64191V52.6212L6.98309 52.6211V50.543ZM9.64191 73.7734H6.98309V70.2233H9.64191V73.7734ZM6.54921 67.9967C5.23509 67.9967 4.16605 66.9277 4.16605 65.6135V57.231C4.16605 55.9169 5.23509 54.8477 6.54921 54.8477L11.5324 54.8478C12.0432 54.8478 12.4588 55.2633 12.4588 55.7741C12.4588 56.0709 12.3258 56.334 12.0836 56.5155C11.7266 56.7837 11.5133 57.2103 11.5133 57.6568C11.5133 58.1033 11.7266 58.5301 12.0849 58.7991C12.3261 58.9797 12.459 59.2426 12.459 59.5395C12.459 59.8362 12.326 60.0992 12.0847 60.28C11.7269 60.548 11.5133 60.975 11.5133 61.4221C11.5133 61.8682 11.7263 62.2946 12.0844 62.564C12.326 62.745 12.4588 63.008 12.4588 63.3049C12.4588 63.6018 12.3258 63.8648 12.0831 64.0468C11.7263 64.315 11.5133 64.7415 11.5133 65.1877C11.5133 65.6346 11.7267 66.0614 12.0847 66.3299C12.326 66.5105 12.459 66.7736 12.459 67.0703C12.459 67.5811 12.0433 67.9967 11.5326 67.9967H6.54921ZM57.2871 26.3974V28.0547C57.2871 29.8964 55.7888 31.3945 53.9472 31.3945H53.3989C53.4059 31.2373 53.4109 31.0797 53.4109 30.9207V23.0575H53.9472C55.7888 23.0575 57.2871 24.5559 57.2871 26.3974ZM22.4785 31.3945C20.637 31.3945 19.1386 29.8964 19.1386 28.0547V26.3974C19.1386 24.5557 20.637 23.0575 22.4785 23.0575H23.0148V30.9207C23.0148 31.0795 23.0198 31.2373 23.0268 31.3945H22.4785ZM40.6719 12.6012H28.3811C25.422 12.6012 23.0148 15.0084 23.0148 17.9673V20.831H22.4785C21.9236 20.831 21.3879 20.9137 20.8819 21.0655V16.9188C20.8819 8.81748 27.4728 2.22656 35.5741 2.22656H40.8515C48.9528 2.22656 55.5437 8.81748 55.5437 16.9188V21.0655C55.0377 20.9137 54.502 20.831 53.9471 20.831H53.4108V17.9673C53.4108 15.0084 51.0034 12.6012 48.0445 12.6012H45.8672C45.2522 12.6012 44.7539 13.0996 44.7539 13.7144C44.7539 14.3293 45.2522 14.8277 45.8672 14.8277H48.0445C49.7757 14.8277 51.1842 16.2361 51.1842 17.9673V30.4625H46.7326C44.7438 28.3755 41.6535 27.1351 38.3337 27.1054L39.2542 24.6716C39.4716 24.0965 39.1817 23.454 38.6067 23.2366C38.0315 23.0189 37.3892 23.3088 37.1714 23.884L35.8763 27.3089C33.4259 27.743 31.2302 28.8493 29.693 30.4623H25.2415V17.9672C25.2415 16.2359 26.65 14.8276 28.3813 14.8276H40.6719C41.2869 14.8276 41.7852 14.3291 41.7852 13.7143C41.7852 13.0995 41.2869 12.6012 40.6719 12.6012ZM25.4035 32.6891H30.1888C30.5165 32.6891 30.8277 32.5446 31.0392 32.2944C32.608 30.4377 35.2898 29.3292 38.2129 29.3292C41.1359 29.3292 43.8177 30.4376 45.3864 32.2942C45.5979 32.5446 45.9091 32.6891 46.2368 32.6891H51.0223C50.1864 37.2789 46.162 40.7704 41.3347 40.7704H35.0912C30.2637 40.7704 26.2393 37.2787 25.4035 32.6891ZM33.6998 45.084V42.9146C34.1565 42.9673 34.6204 42.997 35.0911 42.997H41.3345C41.8052 42.997 42.2691 42.9673 42.7258 42.9146V45.084L41.3532 49.0317C39.2924 49.4588 37.1333 49.4588 35.0725 49.0317L33.6998 45.084ZM35.9067 51.4312C37.4328 51.6318 38.9926 51.6318 40.5187 51.4312L38.2127 58.0633L35.9067 51.4312ZM58.4746 73.7734H39.3261V61.6412L44.6307 46.3854H58.4746V73.7734ZM71.834 70.1367V73.7734H60.7011V70.1367H71.834ZM60.6269 37.9258C60.3404 37.9258 60.1074 37.6927 60.1074 37.4062V36.5156C60.1074 36.2291 60.3404 35.9961 60.6269 35.9961H69.6074V37.9258H60.6269ZM63.7441 40.1523V42.9727H62.2597V40.1523H63.7441ZM65.3027 46.9805H60.7011V45.1992H65.3027V46.9805Z" fill="black"/>
</g>
<defs>
<clipPath id="clip0">
<rect width="76" height="76" fill="white"/>
</clipPath>
</defs>
</svg>
