<svg width="60" height="117" viewBox="0 0 60 117" fill="none" xmlns="http://www.w3.org/2000/svg">
<path d="M58.9292 30.7569L50.0308 21.6V5.68615H41.2061V12.3323L28.8738 0L0 28.8738L1.32922 106.892C1.32922 106.892 3.65538 117.157 12.0369 116.492C20.4185 115.828 22.9292 106.966 22.9292 106.966L22.1538 52.9108C22.1538 52.9108 26.88 40.5046 36.5538 39.9138C46.2277 39.3231 58.9292 33.6369 58.9292 33.6369V30.5723V30.7569Z" fill="#3A7197"/>
<path d="M58.7446 30.5725C58.7446 30.5725 31.2369 16.7263 21.8215 53.6494C21.8215 53.6494 24.7015 47.0402 30.0554 47.3725C35.4092 47.7048 37.0338 50.5479 37.5877 52.394C38.1415 54.2402 38.1415 63.3232 38.1415 63.3232C38.1415 63.3232 39.0646 73.2555 47.5938 73.4402C56.1231 73.6248 59.4462 67.754 60 64.0248L59.04 30.7571L58.7446 30.5725Z" fill="#2E6882"/>
</svg>
