<svg width="163" height="316" viewBox="0 0 163 316" fill="none" xmlns="http://www.w3.org/2000/svg">
<path d="M159.6 83.3L135.5 58.5V15.4H111.6V33.4L78.2 0L0 78.2L3.59998 289.5C3.59998 289.5 9.89997 317.3 32.6 315.5C55.3 313.7 62.1 289.7 62.1 289.7L60 143.3C60 143.3 72.8 109.7 99 108.1C125.2 106.5 159.6 91.1 159.6 91.1V82.8V83.3Z" fill="#3A7197"/>
<path d="M159.1 82.8C159.1 82.8 84.6 45.3 59.1 145.3C59.1 145.3 66.9 127.4 81.4 128.3C95.9 129.2 100.3 136.9 101.8 141.9C103.3 146.9 103.3 171.5 103.3 171.5C103.3 171.5 105.8 198.4 128.9 198.9C152 199.4 161 183.5 162.5 173.4L159.9 83.3L159.1 82.8Z" fill="#2E6882"/>
</svg>
