<svg width="76" height="76" viewBox="0 0 76 76" fill="none" xmlns="http://www.w3.org/2000/svg">
<path d="M3.5625 3.5625H72.4375V72.4375H3.5625V3.5625Z" fill="#DFDFDD"/>
<path d="M8.3125 8.3125H67.6875V67.6875H8.3125V8.3125Z" fill="#85CCD5"/>
<path d="M8.3125 8.3125H67.6875V10.6875H8.3125V8.3125Z" fill="#7FC6CE"/>
<path d="M8.30952 40.3728L40.3672 8.31516L43.9291 11.8771L11.8715 43.9348L8.30952 40.3728Z" fill="#34507B"/>
<path d="M74.8125 55.8125L73.625 68.875L62.9375 58.1875L70.0625 51.0625L74.8125 55.8125Z" fill="#FDC8A2"/>
<path d="M60.0332 57.5946L34.3511 30.9614L34.4375 30.875V21.375L21.375 34.4375H30.7053L56.4071 61.0912C56.6394 61.3321 56.9173 61.5242 57.2247 61.6565C57.5321 61.7887 57.8627 61.8584 58.1973 61.8615C58.5319 61.8645 58.8637 61.8008 59.1734 61.6742C59.4831 61.5476 59.7645 61.3605 60.0011 61.1239C60.4679 60.6572 60.7327 60.0259 60.7387 59.3658C60.7447 58.7058 60.4914 58.0698 60.0332 57.5946Z" fill="#FFB431"/>
<path d="M71.25 49.875L61.75 59.375L59.6214 57.2464L57.9411 55.5661L55.8125 53.4375H45.125C44.4951 53.4375 43.891 53.1873 43.4456 52.7419C43.0002 52.2965 42.75 51.6924 42.75 51.0625V49.875H41.5625C40.9326 49.875 40.3285 49.6248 39.8831 49.1794C39.4377 48.734 39.1875 48.1299 39.1875 47.5V46.3125H38C37.3701 46.3125 36.766 46.0623 36.3206 45.6169C35.8752 45.1715 35.625 44.5674 35.625 43.9375V42.75H34.4375C33.8076 42.75 33.2035 42.4998 32.7581 42.0544C32.3127 41.609 32.0625 41.0049 32.0625 40.375C32.0625 39.7451 32.3127 39.141 32.7581 38.6956C33.2035 38.2502 33.8076 38 34.4375 38H41.138L36.5572 33.25H54.625L71.25 49.875Z" fill="#348ED8"/>
<path d="M8.80442 68.875H66.5V66.5H9.5V46.0651H7.125V67.1956L4.75 69.5706V6.42942L7.125 8.80442V35.7734H9.5V9.5H35.2787V7.125H8.80442L6.42942 4.75H69.5706L67.1956 7.125H46.0651V9.5H66.5V41.3151H68.875V8.80442L71.25 6.42942V45.6693H73.625V3.5625C73.625 3.24756 73.4999 2.94551 73.2772 2.72281C73.0545 2.50011 72.7524 2.375 72.4375 2.375H3.5625C3.24756 2.375 2.94551 2.50011 2.72281 2.72281C2.50011 2.94551 2.375 3.24756 2.375 3.5625V72.4375C2.375 72.7524 2.50011 73.0545 2.72281 73.2772C2.94551 73.4999 3.24756 73.625 3.5625 73.625H69.5182V71.25H6.42942L8.80442 68.875Z" fill="black"/>
<path d="M70.0625 52.7419L73.9728 56.6522L75.6522 54.9728L71.7419 51.0625L72.0897 50.7147C72.2 50.6044 72.2875 50.4735 72.3472 50.3294C72.4068 50.1854 72.4376 50.0309 72.4376 49.875C72.4376 49.719 72.4068 49.5646 72.3472 49.4205C72.2875 49.2765 72.2 49.1455 72.0897 49.0353L55.4647 32.4103C55.3545 32.3 55.2235 32.2125 55.0795 32.1529C54.9354 32.0932 54.781 32.0625 54.625 32.0625H37.0628L35.625 30.5713V21.8669L44.7772 12.7147C44.8875 12.6044 44.975 12.4735 45.0347 12.3294C45.0943 12.1854 45.1251 12.0309 45.1251 11.875C45.1251 11.719 45.0943 11.5646 45.0347 11.4205C44.975 11.2765 44.8875 11.1455 44.7772 11.0353L41.2147 7.47277C41.1045 7.36249 40.9735 7.27502 40.8295 7.21534C40.6854 7.15566 40.531 7.12494 40.375 7.12494C40.2191 7.12494 40.0646 7.15566 39.9206 7.21534C39.7765 7.27502 39.6456 7.36249 39.5353 7.47277L28.8478 18.1603L30.5272 19.8397L40.375 9.99176L42.2582 11.875L11.875 42.2582L9.99179 40.375L28.1522 22.2147L26.4728 20.5353L7.4728 39.5353C7.36253 39.6455 7.27505 39.7765 7.21537 39.9205C7.15569 40.0646 7.12497 40.219 7.12497 40.375C7.12497 40.5309 7.15569 40.6854 7.21537 40.8294C7.27505 40.9735 7.36253 41.1044 7.4728 41.2147L11.0353 44.7772C11.1456 44.8875 11.2765 44.9749 11.4206 45.0346C11.5646 45.0943 11.7191 45.125 11.875 45.125C12.031 45.125 12.1854 45.0943 12.3295 45.0346C12.4735 44.9749 12.6045 44.8875 12.7147 44.7772L21.8669 35.625H30.2013L32.1505 37.6463C31.5897 38.1156 31.187 38.7462 30.9971 39.4523C30.8072 40.1585 30.8394 40.9061 31.0892 41.5934C31.339 42.2806 31.7944 42.8743 32.3935 43.2937C32.9926 43.7131 33.7062 43.9379 34.4375 43.9375C34.4386 44.882 34.8143 45.7875 35.4822 46.4553C36.15 47.1232 37.0555 47.4989 38 47.5C38.0011 48.4445 38.3768 49.35 39.0447 50.0178C39.7125 50.6857 40.618 51.0614 41.5625 51.0625C41.5636 52.007 41.9393 52.9125 42.6072 53.5803C43.275 54.2482 44.1805 54.6239 45.125 54.625H48.5229L55.5522 61.9144C55.9912 62.371 56.5401 62.7072 57.1463 62.891C57.7524 63.0748 58.3956 63.1 59.0143 62.9642C59.633 62.8284 60.2065 62.5362 60.68 62.1154C61.1534 61.6947 61.511 61.1595 61.7185 60.561C61.7289 60.561 61.7395 60.5625 61.75 60.5625C61.906 60.5627 62.0605 60.5321 62.2046 60.4724C62.3487 60.4127 62.4796 60.3251 62.5897 60.2147L62.9375 59.8669L72.7853 69.7147L74.4647 68.0353L64.6169 58.1875L70.0625 52.7419ZM34.6453 36.8125L32.4526 34.5387L34.336 32.6562L38.3438 36.8125H34.6453ZM33.25 24.2419V30.3832L30.3832 33.25H24.2419L33.25 24.2419ZM43.9375 51.0625V49.875C43.9375 49.56 43.8124 49.258 43.5897 49.0353C43.367 48.8126 43.065 48.6875 42.75 48.6875H41.5625C41.2477 48.6871 40.9458 48.5619 40.7232 48.3393C40.5006 48.1167 40.3754 47.8148 40.375 47.5V46.3125C40.375 45.9975 40.2499 45.6955 40.0272 45.4728C39.8045 45.2501 39.5025 45.125 39.1875 45.125H38C37.6852 45.1246 37.3833 44.9994 37.1607 44.7768C36.9381 44.5542 36.8129 44.2523 36.8125 43.9375V42.75C36.8125 42.435 36.6874 42.133 36.4647 41.9103C36.242 41.6876 35.94 41.5625 35.625 41.5625H34.4375C34.1226 41.5625 33.8205 41.4374 33.5978 41.2147C33.3751 40.992 33.25 40.6899 33.25 40.375C33.25 40.06 33.3751 39.758 33.5978 39.5353C33.8205 39.3126 34.1226 39.1875 34.4375 39.1875H47.5V36.8125H41.6425L39.3527 34.4375H54.1332L69.5707 49.875L61.75 57.6957L60.4607 56.4062L66.1522 50.7147L64.4728 49.0353L58.7813 54.7268L56.6522 52.5978C56.542 52.4875 56.411 52.4 56.267 52.3404C56.1229 52.2807 55.9685 52.25 55.8125 52.25H45.125C44.8102 52.2496 44.5083 52.1244 44.2857 51.9018C44.0631 51.6792 43.9379 51.3773 43.9375 51.0625ZM59.1616 60.284C59.0366 60.409 58.8879 60.5079 58.7242 60.5748C58.5606 60.6417 58.3852 60.6754 58.2084 60.6738C58.0316 60.6721 57.8569 60.6353 57.6945 60.5654C57.5321 60.4955 57.3853 60.3939 57.2626 60.2666L51.8222 54.625H55.3207L59.3704 58.6748C59.5182 58.9284 59.5779 59.2239 59.5401 59.515C59.5023 59.8061 59.3692 60.0765 59.1616 60.284Z" fill="black"/>
<path d="M44.3213 16.2797L45.9458 14.5459L64.9578 32.36L63.3333 34.0938L44.3213 16.2797Z" fill="black"/>
<path d="M14.5909 45.9629L16.27 44.2838L35.2671 63.2809L33.588 64.96L14.5909 45.9629Z" fill="black"/>
<path d="M51.4019 15.092L53.0811 13.4129L62.5797 22.9115L60.9005 24.5906L51.4019 15.092Z" fill="black"/>
<path d="M13.4042 53.0839L15.0833 51.4047L24.5819 60.9033L22.9028 62.5825L13.4042 53.0839Z" fill="black"/>
</svg>
